<?xml version="1.0" standalone="no"?><!DOCTYPE svg PUBLIC "-//W3C//DTD SVG 1.1//EN" "http://www.w3.org/Graphics/SVG/1.1/DTD/svg11.dtd"><svg t="1716551318086" class="icon" viewBox="0 0 1024 1024" version="1.1" xmlns="http://www.w3.org/2000/svg" p-id="5579" xmlns:xlink="http://www.w3.org/1999/xlink" width="128" height="128"><path d="M928 448a64 64 0 0 0 64-64V256a64 64 0 0 0-64-64h-128a64 64 0 0 0-64 64v32H640V256a64 64 0 0 0-64-64H448a64 64 0 0 0-64 64v32H288V256a64 64 0 0 0-64-64h-128a64 64 0 0 0-64 64v128a64 64 0 0 0 64 64h128a64 64 0 0 0 64-64v-32H384V384a64 64 0 0 0 64 64h128a64 64 0 0 0 64-64v-32h96V384a64 64 0 0 0 64 64h32v128h-32a64 64 0 0 0-64 64v32H640V640a64 64 0 0 0-64-64H448a64 64 0 0 0-64 64v32H288V640a64 64 0 0 0-64-64h-128a64 64 0 0 0-64 64v128a64 64 0 0 0 64 64h128a64 64 0 0 0 64-64v-32H384v32a64 64 0 0 0 64 64h128a64 64 0 0 0 64-64v-32h96v32a64 64 0 0 0 64 64h128a64 64 0 0 0 64-64v-128a64 64 0 0 0-64-64H896V448h32z m-704-64h-128V256h128v128zM576 384H448V256h128v128z m-352 384h-128v-128h128v128zM576 768H448v-128h128v128z m352-128v128h-128v-128h128z m-128-256V256h128v128h-128z" fill="#13227a" p-id="5580"></path></svg>